<?xml version="1.0" encoding="utf-8"?>
<!-- Generator: Adobe Illustrator 16.0.4, SVG Export Plug-In . SVG Version: 6.00 Build 0)  -->
<!DOCTYPE svg PUBLIC "-//W3C//DTD SVG 1.1//EN" "http://www.w3.org/Graphics/SVG/1.1/DTD/svg11.dtd">
<svg version="1.1" id="Layer_1" xmlns="http://www.w3.org/2000/svg" xmlns:xlink="http://www.w3.org/1999/xlink" x="0px" y="0px"
	 width="120px" height="21.96px" viewBox="0 0 120 21.96" enable-background="new 0 0 120 21.96" xml:space="preserve">
<g>
	<g>
		<path fill="#FFFFFF" d="M58.279,18.423L50.607,2.601c0,0-0.178-0.382-0.443-0.559c-0.265-0.176-0.736-0.146-0.736-0.146H46.86
			c0,0-0.501,0-0.826,0.353c-0.325,0.353-0.431,0.776-0.431,0.776s-6.65,13.987-7.447,15.576c-0.797,1.588,0.768,1.411,0.768,1.411
			s1.829,0.028,2.537,0c0.708-0.029,1.15-0.853,1.15-0.853s0.754-1.697,1.004-2.31c0.324-0.794,1.18-0.649,1.18-0.649
			s5.547,0.012,6.709,0c1.021-0.013,1.169,0.664,1.169,0.664s0.796,1.735,1.18,2.529s1.181,0.665,1.181,0.665s1.475,0.011,2.702,0
			S58.279,18.423,58.279,18.423z M49.574,12.455c-1.15,0-2.773,0-2.773,0s-1.43,0.103-0.914-1.031
			c0.552-1.209,1.74-3.764,1.74-3.764s0.236-0.59,0.517-0.604c0.311-0.015,0.473,0.573,0.473,0.573l1.667,3.794
			C50.283,11.424,50.725,12.455,49.574,12.455z"/>
	</g>
	<g>
		<path fill="#FFFFFF" d="M35.58,1.894h-2.242c-0.522,0-0.945,0.42-0.945,0.938v5.354h-0.02c0,0.259-0.211,0.47-0.471,0.47h-8.026
			c-0.261,0-0.472-0.211-0.472-0.47h-0.02V2.87c0-0.518-0.423-0.938-0.945-0.938h-2.242c-0.521,0-0.943,0.42-0.943,0.938v16.258
			c0,0.52,0.423,0.938,0.943,0.938h2.242c0.522,0,0.945-0.42,0.945-0.938v-6.254h0.035c0.039-0.219,0.223-0.39,0.456-0.39h8.026
			c0.231,0,0.416,0.171,0.455,0.39h0.035v6.217c0,0.518,0.423,0.938,0.945,0.938h2.242c0.521,0,0.943-0.42,0.943-0.938V2.831
			C36.523,2.313,36.101,1.894,35.58,1.894z"/>
	</g>
	<path fill="#FFFFFF" d="M4.786,1.893h11.301c0,0,1.623-0.029,0.974,0.944c-0.649,0.973-1.534,2.242-1.534,2.242
		s-0.177,0.62-1.623,0.649c-1.445,0.029-8.332,0.035-8.332,0.035S4.078,5.581,4.078,8.177c0,2.597,0,5.942,0,5.942
		s0.178,2.172,2.391,2.201c2.213,0.029,7.906,0,7.906,0s0.945-0.117,1.417,0.738s1.109,1.688,1.109,1.688s0.778,1.321-0.52,1.321
		c-1.298,0-11.565,0-11.565,0s-1.83,0.06-3.363-1.444C-0.082,17.117,0,16.007,0,16.007V6.289c0,0,0.154-1.771,1.424-2.951
		C2.691,2.158,4.786,1.893,4.786,1.893z"/>
	<path fill="#FFFFFF" d="M60.698,3.152c1.062-1.38,2.608-1.173,2.608-1.173h11.658c0,0,1.704-0.353,1.271,0.372
		c-0.469,0.785-1.791,2.534-1.791,2.534s-0.088,0.558-1.889,0.558c-1.799,0-7.6,0-7.6,0s-1.016-0.039-1.016,0.901
		c0,0.493,0.022,1.535,0.022,1.535s-0.053,0.853,1.068,0.853c1.12,0,7.817,0,7.817,0s1.741,0.088,2.566,1.087
		c0.826,0.997,1.062,2.438,1.062,2.438v3.787c0,0-0.031,1.373-0.855,2.349c-1.396,1.655-3.258,1.675-3.258,1.675H60.786
		c0,0-1.711,0.059-0.708-1.439c1.003-1.496,1.111-1.889,1.525-2.162c0.412-0.274,0.354-0.117,2.41-0.109
		c3.233,0.014,7.336,0,7.336,0s1.002,0.012,1.002-1.045c0-1.059,0-2.104,0-2.104s0.188-0.834-1.052-0.834c-1.651,0-7.946,0-7.946,0
		s-1.438,0.32-2.773-1.263c-0.983-1.165-0.826-2.996-0.826-2.996v-2.76c0,0,0.059-0.734,0.324-1.263
		C60.344,3.563,60.698,3.152,60.698,3.152z"/>
	<path fill="#FFFFFF" d="M80.725,1.92h13.099c0,0,1.711-0.047,0.944,1.191C94,4.349,93.605,4.9,93.605,4.9S93.37,5.372,92.15,5.372
		c-1.221,0-7.672,0-7.672,0s-0.938-0.173-0.922,0.699c0.018,0.873-0.002,1.68-0.002,1.68s-0.139,0.825,1.338,0.864
		c1.375,0.037,7.119,0,7.119,0s1.062-0.177,1.062,0.708c0,0.885,0,2.182,0,2.182s0.158,0.824-0.943,0.824s-7.672,0-7.672,0
		s-0.904-0.137-0.885,0.609c0.021,0.747,0,2.635,0,2.635s0.021,0.729,1.062,0.729c1.04,0,7.905,0,7.905,0s0.905-0.236,1.517,0.785
		c0.608,1.021,1.18,1.867,1.18,1.867s0.648,1.102-0.434,1.102c-1.08,0-14.634,0-14.634,0s-1.082,0.216-1.082-1.238
		c0-1.453,0-15.962,0-15.962s0.021-0.472,0.313-0.767C79.697,1.794,80.725,1.92,80.725,1.92z"/>
	<g>
		<polygon fill="#FFFFFF" points="113.158,6.465 113.592,6.465 120,6.465 120,6.432 113.566,0 104.977,0 104.977,6.465 		"/>
		<polygon fill="#FFFFFF" points="104.74,15.552 104.504,15.552 98.064,15.552 104.473,21.96 113.123,21.96 113.123,15.552 		"/>
		<polygon fill="#FFFFFF" points="104.504,7.369 104.504,6.465 104.504,0 104.473,0 98.041,6.432 98.041,15.08 104.504,15.08 		"/>
		<polygon fill="#FFFFFF" points="113.592,15.275 113.594,15.275 113.594,21.934 120,15.528 120,6.937 113.592,6.937 		"/>
	</g>
</g>
</svg>
