<?xml version="1.0" encoding="utf-8"?>
<!-- Generator: Adobe Illustrator 16.0.4, SVG Export Plug-In . SVG Version: 6.00 Build 0)  -->
<!DOCTYPE svg PUBLIC "-//W3C//DTD SVG 1.1//EN" "http://www.w3.org/Graphics/SVG/1.1/DTD/svg11.dtd">
<svg version="1.1" id="Layer_1" xmlns="http://www.w3.org/2000/svg" xmlns:xlink="http://www.w3.org/1999/xlink" x="0px" y="0px"
	 width="172px" height="44.025px" viewBox="0 0 172 44.025" enable-background="new 0 0 172 44.025" xml:space="preserve">
<g opacity="0.86">
	<path fill="#010101" d="M0,0v44h172V0H0z M25.01,36.351L20,25.572h-3.925v10.778h-5.429V7.949h9.458
		c7.566,0,9.493,3.776,9.493,8.497c0,4.012-1.436,6.372-4.519,7.671l6.235,12.233H25.01z M55.872,36.351H39.407V7.949h16.324v4.957
		H44.836v6.412h9.493v4.681h-9.493v7.395h11.035V36.351z M76.47,36.351h-5.92L62.177,7.949h5.886l5.464,21.163l5.711-21.163h5.639
		L76.47,36.351z M102.29,36.861c-7.673,0-11.142-5.193-11.142-14.673c0-9.991,3.959-14.83,11.104-14.83
		c7.111,0,11.068,4.838,11.068,14.83C113.321,31.668,109.89,36.861,102.29,36.861z M139.21,36.351h-16.393V7.949h5.429v22.817
		h10.964V36.351z M162.823,13.22h-7.603v23.13h-5.431V13.22h-7.603V7.949h20.636V13.22z"/>
	<path fill="#010101" d="M102.253,12.591c-4.03,0-5.255,1.927-5.255,9.52c0,6.923,1.225,9.479,5.292,9.479
		c3.992,0,5.218-2.557,5.218-9.479C107.508,14.518,106.282,12.591,102.253,12.591z"/>
	<path fill="#010101" d="M19.509,12.906h-3.434v7.946h3.33c3.328,0,4.132-1.18,4.132-4.13
		C23.537,13.889,22.698,12.906,19.509,12.906z"/>
</g>
</svg>
