<?xml version="1.0" encoding="utf-8"?>
<!-- Generator: Adobe Illustrator 16.0.4, SVG Export Plug-In . SVG Version: 6.00 Build 0)  -->
<!DOCTYPE svg PUBLIC "-//W3C//DTD SVG 1.1//EN" "http://www.w3.org/Graphics/SVG/1.1/DTD/svg11.dtd">
<svg version="1.1" id="Layer_1" xmlns="http://www.w3.org/2000/svg" xmlns:xlink="http://www.w3.org/1999/xlink" x="0px" y="0px"
	 width="120px" height="38.918px" viewBox="0 0 120 38.918" enable-background="new 0 0 120 38.918" xml:space="preserve">
<g>
	<path fill="#FFFFFF" d="M35.789,30.247h2.139c1.617,0,3.336,0.239,3.336,2.351c0,1.237-0.793,2.044-2.091,2.251l2.373,3.924H40.33
		l-2.271-3.828h-1.274v3.828H35.79L35.789,30.247L35.789,30.247z M36.784,34.004h0.888c1.098,0,2.527,0,2.527-1.407
		c0-1.229-1.053-1.41-2.021-1.41h-1.394V34.004z"/>
	<path fill="#FFFFFF" d="M47.312,37.75c-0.648,0.854-1.428,1.168-2.457,1.168c-1.736,0-2.799-1.324-2.799-2.963
		c0-1.746,1.203-2.959,2.834-2.959c1.561,0,2.623,1.082,2.623,2.946v0.304h-4.47c0.075,0.973,0.808,1.807,1.812,1.807
		c0.79,0,1.324-0.289,1.762-0.857L47.312,37.75z M46.523,35.448c-0.039-0.949-0.652-1.587-1.668-1.587
		c-1.021,0-1.691,0.638-1.812,1.587H46.523z"/>
	<path fill="#FFFFFF" d="M48.873,33.861c0.569-0.592,1.396-0.868,2.199-0.868c1.631,0,2.318,0.795,2.318,2.387v2.418
		c0,0.324,0.033,0.687,0.08,0.975h-0.885c-0.06-0.251-0.06-0.6-0.06-0.843h-0.023c-0.366,0.577-0.979,0.989-1.821,0.989
		c-1.121,0-2.055-0.578-2.055-1.674c0-1.865,2.127-1.977,3.484-1.977h0.355V35.1c0-0.816-0.51-1.238-1.369-1.238
		c-0.594,0-1.209,0.201-1.645,0.614L48.873,33.861z M51.543,36.062c-1.169,0-1.924,0.325-1.924,1.086
		c0,0.711,0.521,0.974,1.217,0.974c1.062,0,1.608-0.781,1.631-1.695v-0.363L51.543,36.062L51.543,36.062z"/>
	<rect x="55.161" y="29.668" fill="#FFFFFF" width="0.923" height="9.104"/>
	<path fill="#FFFFFF" d="M61.365,30.247h2.48c1.536,0,2.934,0.555,2.934,2.336c0,1.865-1.559,2.36-2.744,2.36h-1.676v3.828h-0.994
		V30.247L61.365,30.247z M62.359,34.004h1.676c0.996,0,1.681-0.459,1.681-1.407c0-0.951-0.685-1.41-1.681-1.41h-1.676V34.004z"/>
	<path fill="#FFFFFF" d="M69.9,32.993c1.697,0,2.953,1.203,2.953,2.963c0,1.758-1.256,2.963-2.953,2.963
		c-1.703,0-2.955-1.205-2.955-2.963C66.945,34.196,68.197,32.993,69.9,32.993 M69.9,38.053c1.192,0,1.963-0.918,1.963-2.098
		c0-1.183-0.771-2.097-1.963-2.097c-1.195,0-1.963,0.914-1.963,2.097C67.938,37.135,68.705,38.053,69.9,38.053"/>
	<path fill="#FFFFFF" d="M74.402,37.293c0.367,0.457,0.77,0.76,1.422,0.76c0.576,0,1.213-0.258,1.213-0.87
		c0-0.603-0.59-0.757-1.184-0.892c-1.049-0.237-1.945-0.467-1.945-1.637c0-1.097,1.035-1.662,2.066-1.662
		c0.78,0,1.504,0.301,1.879,1.023l-0.771,0.518c-0.233-0.396-0.624-0.675-1.17-0.675c-0.509,0-1.086,0.255-1.086,0.781
		c0,0.471,0.659,0.675,1.394,0.819c0.979,0.192,1.809,0.557,1.809,1.688c0,1.274-1.107,1.771-2.205,1.771
		c-0.938,0-1.611-0.256-2.155-1.049L74.402,37.293z"/>
	<path fill="#FFFFFF" d="M79.441,37.293c0.358,0.457,0.762,0.76,1.41,0.76c0.58,0,1.223-0.258,1.223-0.87
		c0-0.603-0.592-0.757-1.182-0.892c-1.055-0.237-1.951-0.467-1.951-1.637c0-1.097,1.039-1.662,2.066-1.662
		c0.78,0,1.501,0.301,1.879,1.023l-0.769,0.518c-0.235-0.396-0.628-0.675-1.17-0.675c-0.505,0-1.084,0.255-1.084,0.781
		c0,0.471,0.657,0.675,1.393,0.819c0.978,0.192,1.808,0.557,1.808,1.688c0,1.274-1.111,1.771-2.213,1.771
		c-0.929,0-1.604-0.256-2.148-1.049L79.441,37.293z"/>
	<path fill="#FFFFFF" d="M84.896,30.247c0.379,0,0.674,0.312,0.674,0.688c0,0.396-0.281,0.686-0.674,0.686
		c-0.391,0-0.676-0.289-0.676-0.686C84.221,30.56,84.52,30.247,84.896,30.247 M84.434,33.137h0.924v5.635h-0.924V33.137z"/>
	<path fill="#FFFFFF" d="M87.143,29.668h0.922v4.289h0.023c0.51-0.605,1.182-0.965,1.984-0.965c1.74,0,2.906,1.252,2.906,2.963
		c0,1.687-1.215,2.963-2.763,2.963c-0.995,0-1.784-0.508-2.129-1.146h-0.022v1h-0.922V29.668L87.143,29.668z M90.027,38.053
		c1.191,0,1.961-0.918,1.961-2.098c0-1.183-0.77-2.097-1.961-2.097c-1.193,0-1.963,0.914-1.963,2.097
		C88.064,37.135,88.834,38.053,90.027,38.053"/>
	<path fill="#FFFFFF" d="M94.719,30.247c0.377,0,0.672,0.312,0.672,0.688c0,0.396-0.281,0.686-0.672,0.686
		c-0.393,0-0.672-0.289-0.672-0.686C94.047,30.56,94.34,30.247,94.719,30.247 M94.258,33.137h0.924v5.635h-0.924V33.137z"/>
	<rect x="97.092" y="29.668" fill="#FFFFFF" width="0.928" height="9.104"/>
	<path fill="#FFFFFF" d="M100.389,30.247c0.381,0,0.678,0.312,0.678,0.688c0,0.396-0.287,0.686-0.678,0.686
		c-0.387,0-0.672-0.289-0.672-0.686C99.717,30.56,100.01,30.247,100.389,30.247 M99.93,33.137h0.924v5.635H99.93V33.137z"/>
	<path fill="#FFFFFF" d="M105.707,33.931h-1.629v2.819c0,0.722,0.01,1.303,0.832,1.303c0.27,0,0.561-0.065,0.812-0.193l0.039,0.854
		c-0.326,0.142-0.734,0.205-1.078,0.205c-1.313,0-1.526-0.724-1.526-1.894V33.93h-1.206v-0.795h1.206v-1.602h0.921v1.602h1.629
		V33.931z"/>
	<path fill="#FFFFFF" d="M107.391,30.247c0.377,0,0.674,0.312,0.674,0.688c0,0.396-0.287,0.686-0.674,0.686
		c-0.393,0-0.672-0.289-0.672-0.686C106.719,30.56,107.008,30.247,107.391,30.247 M106.926,33.137h0.924v5.635h-0.924V33.137z"/>
	<path fill="#FFFFFF" d="M114.62,37.75c-0.651,0.854-1.429,1.168-2.458,1.168c-1.736,0-2.805-1.324-2.805-2.963
		c0-1.746,1.211-2.959,2.841-2.959c1.562,0,2.622,1.082,2.622,2.946v0.304h-4.467c0.071,0.973,0.806,1.807,1.809,1.807
		c0.793,0,1.326-0.289,1.763-0.857L114.62,37.75z M113.827,35.448c-0.03-0.949-0.646-1.587-1.665-1.587
		c-1.014,0-1.689,0.638-1.809,1.587H113.827z"/>
	<path fill="#FFFFFF" d="M116.375,37.293c0.361,0.457,0.762,0.76,1.411,0.76c0.579,0,1.222-0.258,1.222-0.87
		c0-0.603-0.588-0.757-1.186-0.892c-1.051-0.237-1.945-0.467-1.945-1.637c0-1.097,1.039-1.662,2.062-1.662
		c0.787,0,1.504,0.301,1.881,1.023l-0.771,0.518c-0.233-0.396-0.623-0.675-1.165-0.675c-0.508,0-1.087,0.255-1.087,0.781
		c0,0.471,0.661,0.675,1.394,0.819c0.979,0.192,1.809,0.557,1.809,1.688c0,1.274-1.111,1.771-2.214,1.771
		c-0.933,0-1.601-0.256-2.153-1.049L116.375,37.293z"/>
	<path fill="#FFFFFF" d="M20.324,20.67c0.021-0.002,0.043-0.006,0.062-0.01l-1.78,4.822H18.51h-6.883h-0.098l1.722-4.128h0.063
		h0.004c0.477-0.001,3.704-0.03,7.008-0.694L20.324,20.67z M116.578,8.964c0,5.452-4.312,8.964-11.408,8.964h-4.271v7.556H81.602
		l-7.783-10.263v10.263H55.209l-2.042-5.63c-0.134-0.029-2.212-0.417-4.667-0.417c-2.444,0-4.615,0.382-4.735,0.402l-2.097,5.645
		h-9.493L30.634,21.2c2.322,0.577,4.104,1.527,4.992,2.059l0.395-0.973c-1.436-0.85-5.436-2.875-11.186-2.875
		c-4.443,0-7.268,1.084-11.886,1.084C5.444,20.495,0.27,16.838,0,16.659l1.99-4.871c0.52,0.334,5.506,3.555,11.253,3.555
		c0.978,0,1.812-0.05,2.591-0.126L22.063,0h0.894h5.09h4.374l6.165,15.978L45.107,0H55.48l9.075,23.519V0H76.95
		c8.428,0,12.561,3.866,12.561,8.964c0,5.101-4.018,7.068-5.134,7.576l7.262,7.897V0h13.53C112.648,0,116.578,3.786,116.578,8.964
		 M28.316,14.789L25.471,6.94l-2.786,7.515c0.47-0.019,0.975-0.026,1.521-0.026C26.467,14.429,28.137,14.753,28.316,14.789
		 M51.339,14.627l-2.84-7.587l-2.889,7.587c0.134-0.018,1.688-0.195,2.889-0.195C49.784,14.432,51.203,14.606,51.339,14.627
		 M79.986,8.964c0-2.529-1.277-4.767-4.807-4.767h-1.361v9.51h1.361C78.357,13.707,79.986,11.906,79.986,8.964 M107.059,8.964
		c0-2.773-1.471-4.767-4.279-4.767h-1.881v9.51h1.881C105.413,13.707,107.059,11.927,107.059,8.964"/>
</g>
</svg>
