<?xml version="1.0" encoding="utf-8"?>
<!-- Generator: Adobe Illustrator 16.0.4, SVG Export Plug-In . SVG Version: 6.00 Build 0)  -->
<!DOCTYPE svg PUBLIC "-//W3C//DTD SVG 1.1//EN" "http://www.w3.org/Graphics/SVG/1.1/DTD/svg11.dtd">
<svg version="1.1" id="Layer_1" xmlns="http://www.w3.org/2000/svg" xmlns:xlink="http://www.w3.org/1999/xlink" x="0px" y="0px"
	 width="120px" height="39.292px" viewBox="0 0 120 39.292" enable-background="new 0 0 120 39.292" xml:space="preserve">
<g id="g3">
	<path id="path5" fill="#2B2C2D" d="M46.081,34.276c-4.465-2.877-10.524-3.382-20.298-0.67c-10.418,2.448-13.893,4.018-18.454,0.867
		c-1.753-1.548-2.382-4.04-1.912-7.629c1.089-5.852,4.029-11.483,9.253-17.729c2.916-3.249,5.621-6.037,9.192-7.157
		c2.737-0.702,2.481,1.448,2.149,1.757c-0.35,0-0.936,0.055-1.39,0.351c-0.368,0.286-1.38,1.208-1.434,2.448
		c-0.078,1.899,1.887,1.504,2.735,0.461c0.913-1.175,2.264-3.425,1.201-5.521c-0.445-0.746-1.215-1.263-2.17-1.438
		c-3.27-0.188-6.315,1.371-9.127,3.095C9.682,7.38,4.764,13.297,1.981,19.775c-1.604,3.907-3.056,9.506-0.88,14.062
		c1.682,3.162,5.174,4.841,9.342,4.49c2.922-0.308,6.455-1.252,8.832-1.822c2.377-0.571,14.543-4.753,18.541,2.525
		c0,0,1.329-2.58,4.651-2.636c2.731-0.252,6.671,0.791,9.54,2.898C51.053,37.855,48.342,35.736,46.081,34.276L46.081,34.276z"/>
	<path id="path7" fill="#2B2C2D" d="M27.023,9.85c-2.275-1.493-6.849,1.361-10.512,6.258c-3.35,4.392-4.797,9.495-3.223,11.855
		c2.342,2.777,6.689-1.263,8.537-3.425l0.239-0.253c1.257-1.35,2.228-2.975,3.169-4.534c0,0,0.863-1.427,0.904-1.492
		c0.534-0.099,1.178-0.253,1.902-0.461c-0.01,0.032-2.773,4.676-2.491,6.981c0.088,0.703,0.021,3.271,2.528,4.051
		c3.343,0.561,6.012-2.031,8.367-4.336c0,0,0.4-0.384,0.628-0.604c-0.058,0.23-0.132,0.537-0.132,0.537
		c-0.979,3.403,0.34,4.117,1.165,4.381c2.493,0.725,5.473-2.898,5.482-2.898c-0.077,1.142-0.304,2.085,0.899,2.843
		c1.136,0.406,2.285-0.213,3.158-0.795c3.146-2.217,5.682-5.688,7.729-8.688h-1.306c-0.016,0-3.223,4.647-5.306,5.658
		c-0.002,0-0.381,0.194-0.6,0.041c-0.271-0.231-0.164-0.711,0.003-1.051c0.011-0.021,8.04-13.949,8.04-13.949h-3.791
		c0,0-0.414,0.67-0.447,0.715c-0.025-0.022-0.087-0.138-0.129-0.192c-2.35-3.25-7.668,1.748-11.674,7.544
		c-1.541,2.229-3.504,4.738-5.54,6.55c0,0-3.015,2.764-4.304,0.778c-0.471-0.835-0.326-2.055-0.061-2.855
		c1.5-4.271,4.085-8.146,7.026-10.484c0.831-0.647,1.733-0.835,2.181-0.561c0.428,0.253,0.496,0.879,0.227,1.307
		c-0.686-0.021-1.234,0.187-1.681,0.647c-0.879,0.922-1.185,1.812-0.905,2.646c1.357,1.933,4.065-1.888,3.935-4.215
		c-0.047-0.835-0.491-1.625-1.156-2.01c-0.99-0.593-2.501-0.439-3.478,0.033c-1.31,0.494-3.381,2.217-4.59,3.557
		c-1.522,1.68-4.133,3.546-4.949,3.337C27.139,16.052,29.344,11.541,27.023,9.85L27.023,9.85z M45.303,16.525
		c0.738-1.021,2.885-3.754,3.408-4.215c1.76-1.549,2.463-0.867,2.523-0.385c-1.643,2.941-3.58,6.312-5.404,9.342
		c0.004-0.011-0.57,0.867-0.57,0.867c-0.805,1.229-1.615,2.283-2.938,3.019c-0.188,0.056-0.499,0.077-0.706-0.077
		c-0.249-0.164-0.347-0.438-0.319-0.725C41.376,23.408,42.338,20.521,45.303,16.525L45.303,16.525z M24.678,18.292
		c0,0-0.033,0.099-0.05,0.131c-0.005,0-1.653,2.689-1.653,2.689c-0.994,1.329-2.237,2.998-3.791,3.799
		c-0.46,0.153-1.096,0.253-1.42-0.153c-0.688-0.823-0.334-1.965-0.046-2.887l0.103-0.33c0.824-2.239,2.135-4.216,3.408-6.049
		c0.017-0.011,0.053-0.021,0.064-0.021c0.004,0.011,0.009,0.011,0.012,0.033c0.799,1.536,2.299,2.25,3.42,2.579
		c0.008,0,0.014,0.012,0.014,0.033C24.739,18.15,24.721,18.194,24.678,18.292L24.678,18.292z M26.239,15.12
		c-0.007,0.022-0.734,1.69-0.734,1.69c-0.104,0.088-0.271,0.044-0.462,0l-0.326-0.055c-1.025-0.318-1.799-0.999-2.037-1.812
		c-0.328-1.581,1.022-2.821,1.617-3.271c0.57-0.396,1.459-0.604,1.975-0.198c0.317,0.373,0.438,0.856,0.438,1.384
		C26.709,13.572,26.489,14.374,26.239,15.12L26.239,15.12z"/>
	<path id="path9" fill="#2B2C2D" d="M74.17,20.213c-0.365-0.79-1.232-1.296-2.158-1.24c-3.004,0.274-5.941,2.744-7.483,6.29
		c-0.81,1.822-1.251,3.326-1.541,5.719c0.935-1.075,2.839-2.843,5.001-3.809c0,0,0.294-2.294,1.794-4.336
		c0.567-0.846,1.704-2.207,2.979-1.845c1.113,0.373,0.723,3.458-0.759,6.443c-1.096,2.196-2.772,4.392-4.47,5.906
		c-1.5,1.273-3.72,2.811-5.662,1.625c-1.223-0.724-1.846-2.239-1.715-4.193c0.585-5.544,3.107-10.265,6.719-15.644
		C70.6,10.136,74.704,5.009,80.233,2.275c1.128-0.57,2.173-0.702,3.075-0.351c0,0-5.191,2.854-7.665,8.135
		c-0.63,1.339-1.505,3.15-0.623,4.753c0.46,0.834,1.278,0.9,1.937,0.856c3.033-0.703,4.992-3.535,6.594-6.126
		c0.928-1.965,1.753-3.919,1.753-6.092c0-0.264-0.013-0.615-0.036-0.879c1.449-0.768,4.42,0.593,4.42,0.593
		c2.322,0.769,7.266,4.557,8.934,5.28c0.814-0.943,2.15-2.37,2.903-3.084l-1.089-0.67c-1.745-1.064-3.589-2.075-5.404-3.074
		c-4.121-2.25-7.477-1.46-9.184-0.845c-0.672,0.241-1.285,0.45-1.285,0.45c-1.268-1.383-3.346-1.252-4.877-0.879
		c-5.507,1.581-10.62,5.435-16.102,12.12c-4.03,5.236-6.53,9.759-7.863,14.227c-1.026,3.008-1.339,7.433,1.168,10.056
		c2.131,2.229,4.957,1.745,6.953,0.944c4.324-2.13,8.211-6.719,10.146-11.999C74.456,24.122,74.975,21.904,74.17,20.213
		L74.17,20.213z M84.113,3.669c-0.572,6.565-5.676,10.419-6.938,10.726c-0.766,0.153-2.071-0.187-0.906-2.941
		c1.717-3.711,4.647-6.861,7.791-8.476C84.138,3.253,84.136,3.428,84.113,3.669L84.113,3.669z"/>
	<path id="path11" fill="#2B2C2D" d="M114.383,4.504c-2.744,1.559-5.59,2.568-9.034,2.217c-0.955,1.076-1.884,2.186-2.741,3.327
		c4.834,1.229,9.96-1.504,12.818-4.105C118.449,3.319,120,0.015,120,0.015S117.733,2.605,114.383,4.504L114.383,4.504z"/>
	<polygon id="polygon13" fill="#2B2C2D" points="62.51,9.971 58.908,9.971 56.877,13.271 60.478,13.271 	"/>
	<path id="path15" fill="#2B2C2D" d="M105.334,34.582c-0.387,0.263-0.932,0.061-0.728-0.543c0.507-1.537,2.521-4.669,2.521-4.669
		l5.609-9.948h-3.843c-0.183,0.3-0.573,0.988-0.573,0.988c-0.178-0.296-0.709-0.955-0.928-1.097
		c-0.939-0.594-2.316-0.312-3.266,0.225c-4.131,2.416-7.146,7.188-9.522,10.909c0,0-2.502,4.138-3.892,4.445
		c-1.084,0.088-0.972-1.373-0.925-1.713c0.419-2.46,1.393-4.798,2.374-6.917c1.995-1.383,4.271-3.194,6.342-5.181
		c4.49-4.293,8.275-9.156,8.829-10.243c0,0-0.599,0.121-1.306,0.143c-3.455,4.819-10.525,11.823-12.668,12.866
		c0.949-2.283,7.084-13.185,12.305-18.398l0.821-0.791c1.271-1.24,2.586-2.514,3.612-2.723c0.107-0.011,0.248,0,0.367,0.253
		c0.047,0.966-0.312,1.68-0.726,2.492l-0.578,1.186c0,0,0.819-0.153,1.356-0.33c0.624-1.174,1.314-2.491,1.061-4.061
		c-0.085-0.505-0.451-0.89-0.928-0.978c-1.559-0.297-3.256,0.856-4.621,1.789l-0.055,0.033c-7.021,5.5-12.948,13.426-18.131,24.25
		c-0.376,0.285-1.827,0.625-2.074,0.461c0.512-1.054,1.156-2.471,1.479-4.007c0.057-0.439,0.108-0.89,0.108-1.328
		c0-0.945-0.228-1.834-1.073-2.448c-0.992-0.494-2.219-0.264-3.046,0.109c-3.705,1.537-6.474,5.336-8.472,8.464
		c-1.074,1.987-2.146,4.116-2.443,6.554c-0.209,1.91,0.217,3.139,1.303,3.754c1.117,0.57,2.522-0.022,3.074-0.308
		c3.754-1.976,6.376-5.938,8.443-9.562c0.082-0.011,1.211-0.043,2.064-0.264c0.012,0,0.016,0,0.035,0.012
		c-0.049,0.164-0.49,1.482-0.49,1.482c-1.311,3.842-1.916,6.454-0.679,8.002c1.769,2.185,4.696-0.076,7.077-3.062
		c-0.511,3.578,1.344,4.139,2.758,3.864c1.624-0.438,3.434-2.174,4.273-3.062c-0.27,1.042-0.196,2.909,1.281,3.095
		c1.012,0.188,1.77-0.363,2.646-0.836c3.146-1.712,6.911-7.419,7.889-9.069h-1.281C109.326,30.521,107.559,33.274,105.334,34.582
		L105.334,34.582z M77.102,34.199c-0.199-0.296-0.266-0.62-0.272-0.971c-0.038-2.152,2.277-6.007,3.912-8.107
		c0.003,0,0.003,0,0.003,0c0.686,1.5,2.236,2.465,3.174,2.871C82.754,30.583,78.766,36.131,77.102,34.199L77.102,34.199z
		 M84.574,26.833c-0.111,0.077-2.067-0.582-2.445-2.394c-0.32-1.56,0.754-2.777,1.792-3.392c0.446-0.352,1.118-0.473,1.61-0.297
		c0.457,0.308,0.582,0.856,0.582,1.448c0,0.363-0.049,0.736-0.092,1.076c0,0-0.008,0.066-0.009,0.077
		C85.687,24.572,85.188,25.768,84.574,26.833L84.574,26.833z M100.264,33.507c-0.002,0-0.371,0.329-0.371,0.329
		c-0.527,0.472-1.07,0.978-1.727,0.725c-0.182-0.065-0.309-0.307-0.339-0.494c-0.03-1.351,0.578-2.602,1.168-3.82l0.151-0.318
		c1.695-2.832,3.668-6.169,6.562-8.485c0.488-0.352,1.018-0.647,1.577-0.417c0.128,0.12,0.278,0.329,0.278,0.538
		c0,0.065-0.059,0.241-0.093,0.296c-0.809,1.307-1.579,2.679-2.328,3.996C103.68,28.458,102.162,31.147,100.264,33.507
		L100.264,33.507z"/>
</g>
</svg>
