<?xml version="1.0" encoding="utf-8"?>
<!-- Generator: Adobe Illustrator 16.0.4, SVG Export Plug-In . SVG Version: 6.00 Build 0)  -->
<!DOCTYPE svg PUBLIC "-//W3C//DTD SVG 1.1//EN" "http://www.w3.org/Graphics/SVG/1.1/DTD/svg11.dtd">
<svg version="1.1" id="Layer_1" xmlns="http://www.w3.org/2000/svg" xmlns:xlink="http://www.w3.org/1999/xlink" x="0px" y="0px"
	 width="120px" height="42.02px" viewBox="0 0 120 42.02" enable-background="new 0 0 120 42.02" xml:space="preserve">
<path id="path3775" inkscape:connector-curvature="0" fill="#2B2C2D" d="M68.952,24.256c-4.816,0-8.833,3.955-8.833,8.903
	c0,4.663,3.787,8.814,8.869,8.814c3.543,0,5.784-2.108,6.505-2.902l-1.225-1.203c-0.413,0.493-2.201,2.387-5.28,2.387
	c-4.15,0-7.15-3.358-7.15-7.096c0-4.022,3.235-7.185,7.114-7.185c3.307,0,5.027,2.052,5.027,2.052
	c0.309,0.361,0.852,0.403,1.212,0.095c0.361-0.309,0.403-0.851,0.095-1.212C75.286,26.91,72.991,24.256,68.952,24.256z"/>
<path id="path2998" inkscape:connector-curvature="0" fill="#2B2C2D" d="M8.832,24.256C4.016,24.256,0,28.21,0,33.159
	c0,4.663,3.786,8.814,8.869,8.814c3.542,0,5.784-2.108,6.504-2.902l-1.225-1.203c-0.413,0.493-2.2,2.387-5.279,2.387
	c-4.151,0-7.151-3.358-7.151-7.096c0-4.022,3.235-7.185,7.114-7.185c3.308,0,5.028,2.052,5.028,2.052
	c0.309,0.361,0.851,0.403,1.212,0.095c0.36-0.309,0.403-0.851,0.095-1.212C15.167,26.91,12.872,24.256,8.832,24.256z"/>
<path id="path3777" inkscape:connector-curvature="0" fill="#2B2C2D" d="M27.049,24.244c-4.395,0-8.86,3.458-8.86,8.937
	c0,4.99,4.121,8.787,8.928,8.787c5.497,0,8.786-4.664,8.786-8.848C35.902,28.527,32.172,24.244,27.049,24.244z M27.049,25.962
	c4.163,0,7.136,3.497,7.136,7.157c0,3.291-2.543,7.13-7.068,7.13c-3.911,0-7.21-3.019-7.21-7.068
	C19.906,28.627,23.541,25.962,27.049,25.962z"/>
<path id="path3779" inkscape:connector-curvature="0" fill="#2B2C2D" d="M53.929,24.231c-0.335,0.005-0.635,0.21-0.761,0.521
	l-5.166,12.664l-5.16-12.661c-0.175-0.427-0.662-0.63-1.089-0.456c-0.262,0.107-0.451,0.34-0.504,0.618l-2.96,16.096
	c-0.094,0.451,0.196,0.893,0.647,0.987c0.451,0.094,0.893-0.196,0.987-0.647c0.002-0.013,0.004-0.026,0.007-0.039l2.445-13.284
	l4.853,11.913c0.174,0.427,0.661,0.632,1.087,0.459c0.209-0.085,0.375-0.25,0.459-0.459l4.86-11.925l2.555,13.854h1.7l-3.13-16.959
	C54.687,24.515,54.335,24.227,53.929,24.231z"/>
<path id="path3794" inkscape:connector-curvature="0" fill="#2B2C2D" d="M85.46,24.213c-0.334,0.006-0.632,0.209-0.759,0.518
	l-6.573,16.13c-0.175,0.427,0.029,0.915,0.457,1.089c0.427,0.175,0.914-0.03,1.089-0.457l0,0l5.801-14.238l5.961,14.624h1.804
	l-6.991-17.149C86.117,24.412,85.804,24.207,85.46,24.213z"/>
<path id="path3796" inkscape:connector-curvature="0" fill="#2B2C2D" d="M81.587,33.628v1.718h7.457v-1.718H81.587z"/>
<path id="path3811" inkscape:connector-curvature="0" fill="#2B2C2D" d="M101.029,24.269c-1.23,0-2.461,0.309-3.439,1.027
	c-0.979,0.718-1.66,1.9-1.66,3.347c0,1.26,0.47,2.29,1.262,3.009c0.791,0.719,1.81,1.206,3.082,1.862
	c0.005,0.002,0.009,0.004,0.014,0.006c1.292,0.639,2.431,1.154,3.159,1.721s1.068,1.063,1.068,2.04c0,0.95-0.366,1.64-0.964,2.151
	s-1.453,0.819-2.384,0.819c-2.209,0-3.865-1.432-4.448-2.016l-1.271,1.16c0.724,0.748,2.786,2.574,5.719,2.574
	c1.304,0,2.554-0.42,3.5-1.23s1.564-2.032,1.564-3.458c0-1.48-0.741-2.624-1.73-3.393c-0.985-0.767-2.194-1.287-3.441-1.902
	c-0.005-0.002-0.008-0.004-0.013-0.006c-1.275-0.658-2.193-1.139-2.699-1.598c-0.509-0.461-0.7-0.827-0.7-1.739
	c0-0.95,0.36-1.523,0.961-1.964c0.601-0.44,1.487-0.693,2.421-0.693c1.655,0,3.056,0.905,3.056,0.905
	c0.381,0.282,0.919,0.202,1.201-0.179s0.202-0.919-0.18-1.202c-0.021-0.016-0.045-0.031-0.068-0.045
	C105.038,25.465,103.297,24.269,101.029,24.269z"/>
<path id="path3813" inkscape:connector-curvature="0" fill="#2B2C2D" d="M109.223,24.357c-0.474-0.006-0.864,0.373-0.87,0.847
	c-0.008,0.475,0.372,0.865,0.846,0.872c0.008,0,0.017,0,0.024,0h9.906c0.475,0.006,0.864-0.373,0.871-0.847
	c0.007-0.474-0.373-0.864-0.847-0.871c-0.008,0-0.017,0-0.024,0H109.223z"/>
<path id="path3815" inkscape:connector-curvature="0" fill="#2B2C2D" d="M113.38,25.437v0.81v14.821v0.81H115v-0.81V26.247v-0.81
	H113.38z"/>
<path id="path3862" inkscape:connector-curvature="0" fill="#2B2C2D" d="M48.214,5.001c-1.279,1.155-1.745,3.774,0.562,5.305
	l9.204,6.299L53.516,6.406C52.581,4,50.023,3.475,48.214,5.001"/>
<path id="path3864" inkscape:connector-curvature="0" fill="#2B2C2D" d="M56.137,0.042c-1.497,0.031-3.743,1.808-2.743,4.522
	l4.615,10.858l1.622-11.421C60.006,1.164,57.854-0.147,56.137,0.042"/>
<path id="path3866" inkscape:connector-curvature="0" fill="#2B2C2D" d="M60.351,3.566h0.873c0,0,0.466,0,0.529,0.219
	c-0.343,0.28-1.278,0.315-1.154,1.81l1.468,9.827l4.583-10.887c0.938-2.431-1.03-4.461-2.775-4.523C63.792,0.005,63.71,0,63.626,0
	C62.059,0,60.263,1.136,60.351,3.566"/>
<path id="path3868" inkscape:connector-curvature="0" fill="#2B2C2D" d="M66.465,6.499L62.13,16.575l9.2-6.332
	c2.121-1.501,1.778-3.9,0.592-5.086c-0.498-0.558-1.412-0.989-2.379-0.989C68.398,4.168,67.175,4.773,66.465,6.499"/>
<path id="path3870" inkscape:connector-curvature="0" fill="#2B2C2D" d="M70.3,11.677l-8.641,6.021h10.639
	c2.183,0,3.586-2.245,2.962-4.305c-0.417-1.295-1.653-2.312-3.087-2.313C71.569,11.079,70.93,11.261,70.3,11.677"/>
<path id="path3872" inkscape:connector-curvature="0" fill="#2B2C2D" d="M47.966,17.697h10.482l-8.643-6.021
	c-1.997-1.28-4.242-0.531-5.053,1.592C44.066,15.701,45.781,17.697,47.966,17.697"/>
<g>
</g>
<g>
</g>
<g>
</g>
<g>
</g>
<g>
</g>
<g>
</g>
<g>
</g>
<g>
</g>
<g>
</g>
<g>
</g>
<g>
</g>
<g>
</g>
<g>
</g>
<g>
</g>
<g>
</g>
</svg>
