<?xml version="1.0" encoding="utf-8"?>
<!-- Generator: Adobe Illustrator 16.0.4, SVG Export Plug-In . SVG Version: 6.00 Build 0)  -->
<!DOCTYPE svg PUBLIC "-//W3C//DTD SVG 1.1//EN" "http://www.w3.org/Graphics/SVG/1.1/DTD/svg11.dtd">
<svg version="1.1" id="Layer_1" xmlns="http://www.w3.org/2000/svg" xmlns:xlink="http://www.w3.org/1999/xlink" x="0px" y="0px"
	 width="120px" height="47.755px" viewBox="0 0 120 47.755" enable-background="new 0 0 120 47.755" xml:space="preserve">
<g>
	<path id="path6" fill="#2B2C2D" d="M96.053,13.667C92.627-3.03,60.32-4.087,39.494,8.632v1.405
		C60.292-0.698,89.805-0.628,92.49,14.751c0.904,5.094-1.945,10.394-7.057,13.442v3.99C91.586,29.927,97.874,22.622,96.053,13.667
		 M58.182,42.899c-14.371,1.33-29.347-0.764-31.443-12.039c-1.041-5.552,1.494-11.443,4.836-15.1v-1.957
		c-6.027,5.307-9.303,12.018-7.412,19.943c2.412,10.17,15.264,15.925,34.884,14.009c7.769-0.75,17.935-3.26,24.99-7.153v-5.534
		C77.624,38.909,67.02,42.081,58.182,42.899z"/>
	<path id="path8" fill="#2B2C2D" d="M82.886,11.252h-3.769v16.855c0,1.979,0.945,3.701,3.769,3.974"/>
	<path id="path10" fill="#2B2C2D" d="M38,17.413h-3.768v11.009c0,1.979,0.946,3.701,3.768,3.975"/>
	<rect id="rect12" x="34.232" y="11.764" fill="#2B2C2D" width="3.768" height="3.586"/>
	<path id="path14" fill="#2B2C2D" d="M60.58,32.218c-3.056,0-4.344-2.131-4.344-4.234V13.363h3.727v4.05h2.822v3.032h-2.822v7.313
		c0,0.86,0.412,1.332,1.301,1.332h1.521v3.128H60.58"/>
	<path id="path16" fill="#2B2C2D" d="M70.485,20.26c-1.272,0-2.26,0.662-2.671,1.557c-0.246,0.54-0.329,0.95-0.369,1.612h5.768
		C73.131,21.81,72.404,20.26,70.485,20.26 M67.445,25.983c0,1.92,1.204,3.332,3.314,3.332c1.658,0,2.48-0.464,3.439-1.412
		l2.302,2.219c-1.479,1.461-3.028,2.35-5.769,2.35c-3.575,0-7-1.961-7-7.67c0-4.883,2.986-7.642,6.918-7.642
		c3.987,0,6.275,3.229,6.275,7.472v1.353L67.445,25.983"/>
	<path id="path18" fill="#2B2C2D" d="M48.153,20.445c1.096,0,1.548,0.539,1.548,1.42v10.374h3.74V21.851
		c0-2.11-1.123-4.439-4.397-4.439H41.33v14.827h3.727V20.444"/>
	<g enable-background="new    ">
		<path fill="#2B2C2D" d="M86.324,11.205c0.218,0,0.431,0.055,0.639,0.164s0.369,0.267,0.485,0.471s0.174,0.416,0.174,0.638
			c0,0.219-0.057,0.43-0.171,0.632s-0.274,0.359-0.48,0.471c-0.206,0.112-0.422,0.168-0.646,0.168c-0.226,0-0.44-0.056-0.646-0.168
			c-0.206-0.111-0.367-0.269-0.481-0.471c-0.115-0.202-0.172-0.413-0.172-0.632c0-0.222,0.058-0.434,0.174-0.638
			c0.117-0.204,0.279-0.361,0.487-0.471C85.893,11.259,86.105,11.205,86.324,11.205z M86.324,11.416
			c-0.183,0-0.36,0.046-0.533,0.137c-0.173,0.092-0.308,0.223-0.405,0.393c-0.098,0.171-0.146,0.348-0.146,0.532
			c0,0.183,0.048,0.358,0.144,0.526s0.23,0.299,0.402,0.393s0.352,0.141,0.539,0.141c0.187,0,0.366-0.047,0.539-0.141
			c0.172-0.094,0.306-0.225,0.4-0.393c0.096-0.168,0.144-0.344,0.144-0.526c0-0.185-0.049-0.361-0.146-0.532
			c-0.098-0.17-0.232-0.301-0.406-0.393C86.683,11.461,86.505,11.416,86.324,11.416z M85.754,13.18v-1.369h0.48
			c0.164,0,0.283,0.013,0.356,0.038s0.132,0.069,0.176,0.133c0.043,0.062,0.065,0.129,0.065,0.2c0,0.1-0.037,0.187-0.109,0.261
			c-0.073,0.074-0.17,0.116-0.29,0.125c0.049,0.021,0.089,0.045,0.118,0.072c0.057,0.055,0.126,0.145,0.207,0.271l0.171,0.269
			h-0.276l-0.124-0.216c-0.097-0.17-0.176-0.276-0.235-0.319c-0.041-0.031-0.102-0.047-0.181-0.047h-0.133v0.582H85.754z
			 M85.979,12.41h0.273c0.131,0,0.221-0.02,0.269-0.058c0.047-0.038,0.071-0.089,0.071-0.151c0-0.04-0.012-0.077-0.035-0.108
			c-0.022-0.032-0.055-0.057-0.095-0.072c-0.041-0.016-0.116-0.023-0.227-0.023h-0.257V12.41z"/>
	</g>
</g>
<g>
</g>
<g>
</g>
<g>
</g>
<g>
</g>
<g>
</g>
<g>
</g>
<g>
</g>
<g>
</g>
<g>
</g>
<g>
</g>
<g>
</g>
<g>
</g>
<g>
</g>
<g>
</g>
<g>
</g>
</svg>
