<?xml version="1.0" encoding="utf-8"?>
<!-- Generator: Adobe Illustrator 16.0.0, SVG Export Plug-In . SVG Version: 6.00 Build 0)  -->
<!DOCTYPE svg PUBLIC "-//W3C//DTD SVG 1.1//EN" "http://www.w3.org/Graphics/SVG/1.1/DTD/svg11.dtd">
<svg version="1.1" id="Layer_1" xmlns="http://www.w3.org/2000/svg" xmlns:xlink="http://www.w3.org/1999/xlink" x="0px" y="0px"
	 width="183.477px" height="273.333px" viewBox="0 0 183.477 273.333" enable-background="new 0 0 183.477 273.333"
	 xml:space="preserve">
<g>
	<g>
		<path fill="#ED1C24" d="M162.108,161.328c12.772-13.494,21.368-36.024,21.368-67.994c0-4.027-0.274-7.994-0.808-11.888
			C176.378,35.513,142.938,0,91.739,0c0,0,0,0-0.001,0s-0.001,0-0.001,0C40.539,0,7.099,35.513,0.808,81.446
			C0.274,85.339,0,89.306,0,93.333c0,31.97,8.596,54.5,21.368,67.994"/>
	</g>
	<path fill="#D6955E" d="M162.108,161.328c-2.407,2.543-4.91,4.843-7.636,6.672c-12.913,8.668-33.247,15.501-38.865,19.93
		c-6.669,5.256-9.335,15.778-10.223,20.053c-1.492,7.186-0.535,21.13,0,28.441c1.091,14.91,4.923,30.116,4.923,30.116
		c0.85,2.615-0.668,5.174-3.369,5.686c0,0-5.862,1.108-15.199,1.108c0,0,0,0-0.001,0s-0.001,0-0.001,0
		c-9.337,0-15.199-1.108-15.199-1.108c-2.701-0.512-4.219-3.07-3.369-5.686c0,0,3.831-15.206,4.922-30.116
		c0.535-7.312,1.492-21.256,0-28.441c-0.888-4.274-3.554-14.797-10.223-20.053C62.25,183.5,41.917,176.667,29.004,168
		c-2.726-1.829-5.229-4.129-7.636-6.672"/>
</g>
</svg>
