<?xml version="1.0" encoding="utf-8"?>
<!-- Generator: Adobe Illustrator 16.0.4, SVG Export Plug-In . SVG Version: 6.00 Build 0)  -->
<!DOCTYPE svg PUBLIC "-//W3C//DTD SVG 1.1//EN" "http://www.w3.org/Graphics/SVG/1.1/DTD/svg11.dtd">
<svg version="1.1" id="Layer_1" xmlns="http://www.w3.org/2000/svg" xmlns:xlink="http://www.w3.org/1999/xlink" x="0px" y="0px"
	 width="120px" height="37.99px" viewBox="0 0 120 37.99" enable-background="new 0 0 120 37.99" xml:space="preserve">
<g>
	<path fill="#2B2C2D" d="M45.516,37.99V0h12.115c2.542,0,4.568,0.199,6.077,0.592c1.525,0.395,2.813,1.059,3.862,1.994
		c1.066,0.967,1.911,2.172,2.535,3.615c0.639,1.461,0.959,2.938,0.959,4.428c0,2.723-1.042,5.029-3.125,6.914
		c2.019,0.689,3.608,1.895,4.773,3.617c1.18,1.705,1.771,3.689,1.771,5.953c0,2.971-1.051,5.479-3.149,7.531
		c-1.263,1.262-2.683,2.139-4.257,2.631c-1.722,0.477-3.879,0.715-6.471,0.715H45.516z"/>
</g>
</svg>
