<?xml version="1.0" encoding="utf-8"?>
<!-- Generator: Adobe Illustrator 16.0.4, SVG Export Plug-In . SVG Version: 6.00 Build 0)  -->
<!DOCTYPE svg PUBLIC "-//W3C//DTD SVG 1.1//EN" "http://www.w3.org/Graphics/SVG/1.1/DTD/svg11.dtd">
<svg version="1.1" id="Layer_1" xmlns="http://www.w3.org/2000/svg" xmlns:xlink="http://www.w3.org/1999/xlink" x="0px" y="0px"
	 width="120px" height="37.99px" viewBox="0 0 120 37.99" enable-background="new 0 0 120 37.99" xml:space="preserve">
<g>
	<path fill="#FFFFFF" d="M45.516,37.99V0h12.115c2.542,0,4.568,0.199,6.077,0.592c1.524,0.395,2.813,1.059,3.862,1.994
		c1.066,0.967,1.91,2.172,2.535,3.615c0.639,1.461,0.959,2.938,0.959,4.428c0,2.723-1.043,5.029-3.125,6.914
		c2.019,0.689,3.607,1.895,4.772,3.617c1.181,1.705,1.771,3.688,1.771,5.952c0,2.972-1.051,5.479-3.148,7.531
		c-1.264,1.263-2.684,2.14-4.257,2.631c-1.722,0.478-3.879,0.716-6.472,0.716H45.516z"/>
</g>
</svg>
