<?xml version="1.0" encoding="utf-8"?>
<!-- Generator: Adobe Illustrator 16.0.4, SVG Export Plug-In . SVG Version: 6.00 Build 0)  -->
<!DOCTYPE svg PUBLIC "-//W3C//DTD SVG 1.1//EN" "http://www.w3.org/Graphics/SVG/1.1/DTD/svg11.dtd">
<svg version="1.1" id="Layer_1" xmlns="http://www.w3.org/2000/svg" xmlns:xlink="http://www.w3.org/1999/xlink" x="0px" y="0px"
	 width="120px" height="30.699px" viewBox="0 0 120 30.699" enable-background="new 0 0 120 30.699" xml:space="preserve">
<g>
	<path fill="#FFFFFF" d="M0,0v30.699h120V0H0z M17.449,25.362l-3.496-7.521h-2.738v7.52H7.428V5.546h6.599
		c5.278,0,6.623,2.635,6.623,5.928c0,2.799-1.002,4.445-3.153,5.352l4.35,8.535h-4.396v0.001H17.449z M38.98,25.362H27.493V5.546
		h11.389v3.459h-7.601v4.473h6.623v3.266h-6.623v5.16h7.698L38.98,25.362L38.98,25.362z M53.352,25.362h-4.131L43.379,5.546h4.107
		l3.812,14.766l3.984-14.766h3.935L53.352,25.362z M71.365,25.718c-5.354,0-7.773-3.625-7.773-10.237
		c0-6.971,2.762-10.347,7.747-10.347c4.961,0,7.722,3.375,7.722,10.347C79.061,22.093,76.668,25.718,71.365,25.718z M97.123,25.362
		H85.686V5.546h3.789v15.918h7.648V25.362z M113.598,9.224h-5.305V25.36h-3.789V9.224h-5.305V5.546h14.396L113.598,9.224
		L113.598,9.224z"/>
	<path fill="#FFFFFF" d="M71.339,8.784c-2.812,0-3.666,1.346-3.666,6.643c0,4.831,0.854,6.614,3.692,6.614
		c2.785,0,3.641-1.785,3.641-6.614C75.006,10.13,74.15,8.784,71.339,8.784z"/>
	<path fill="#FFFFFF" d="M13.611,9.005h-2.396v5.543h2.323c2.322,0,2.883-0.823,2.883-2.881C16.421,9.69,15.836,9.005,13.611,9.005z
		"/>
</g>
</svg>
