<?xml version="1.0" encoding="utf-8"?>
<!-- Generator: Adobe Illustrator 16.0.4, SVG Export Plug-In . SVG Version: 6.00 Build 0)  -->
<!DOCTYPE svg PUBLIC "-//W3C//DTD SVG 1.1//EN" "http://www.w3.org/Graphics/SVG/1.1/DTD/svg11.dtd">
<svg version="1.1" id="Layer_1" xmlns="http://www.w3.org/2000/svg" xmlns:xlink="http://www.w3.org/1999/xlink" x="0px" y="0px"
	 width="120px" height="27.82px" viewBox="0 0 120 27.82" enable-background="new 0 0 120 27.82" xml:space="preserve">
<g>
	<path fill="#FFFFFF" d="M33.105,17.913V0h-6.57v19.325c0,5.722,3.477,8.495,10.607,8.502c7.125,0,10.588-2.784,10.588-8.502V0
		h-6.596v17.913c0,2.388-0.479,4.827-4.012,4.827c-3.539,0.017-4.023-2.448-4.023-4.827H33.105z"/>
	<path fill="#FFFFFF" d="M10.581,0C3.463,0,0,2.773,0,8.503v19.324h6.568V9.907c0-2.381,0.479-4.817,4.013-4.817
		c3.54,0,4.005,2.421,4.005,4.817v17.919h6.569V8.503C21.175,2.773,17.693,0,10.563,0H10.581z"/>
	<path fill="#FFFFFF" d="M53.135,8.503v19.324h6.575V9.907c0-2.381,0.485-4.817,4.019-4.817c1.121,0,2.156,0.133,2.729,0.221V0.157
		C65.594,0.044,64.66,0,63.734,0c-7.129,0-10.607,2.773-10.607,8.503H53.135z"/>
	<path fill="#FFFFFF" d="M109.426,0c-7.125,0-10.588,2.777-10.588,8.503v19.324h6.576V9.907c0-2.381,0.471-4.817,4.01-4.817
		c3.541,0,4.008,2.421,4.008,4.817v17.919H120V8.503C120.012,2.773,116.555,0,109.424,0H109.426z"/>
	<path fill="#FFFFFF" d="M78.241,17.913V0h-6.576v19.325c0,5.722,3.478,8.495,10.606,8.495s10.596-2.784,10.596-8.502V0h-6.575
		v17.913c0,2.388-0.479,4.827-4.021,4.842c-3.553,0.001-4.013-2.463-4.013-4.842H78.241z"/>
</g>
</svg>
