<?xml version="1.0" encoding="utf-8"?>
<!-- Generator: Adobe Illustrator 16.0.0, SVG Export Plug-In . SVG Version: 6.00 Build 0)  -->
<!DOCTYPE svg PUBLIC "-//W3C//DTD SVG 1.1//EN" "http://www.w3.org/Graphics/SVG/1.1/DTD/svg11.dtd">
<svg version="1.1" id="Layer_1" xmlns="http://www.w3.org/2000/svg" xmlns:xlink="http://www.w3.org/1999/xlink" x="0px" y="0px"
	 width="635.896px" height="495.238px" viewBox="0 0 635.896 495.238" enable-background="new 0 0 635.896 495.238"
	 xml:space="preserve">
<g>
	<defs>
		<rect id="SVGID_1_" width="635.896" height="495.238"/>
	</defs>
	<clipPath id="SVGID_2_">
		<use xlink:href="#SVGID_1_"  overflow="visible"/>
	</clipPath>
	<g clip-path="url(#SVGID_2_)">
		<rect fill="#C49A6C" width="662.92" height="495.238"/>
		
			<line fill="none" stroke="#594A42" stroke-width="60" stroke-linecap="round" stroke-miterlimit="10" x1="554.942" y1="330.548" x2="554.942" y2="627.235"/>
		
			<line fill="none" stroke="#30251F" stroke-width="60" stroke-linecap="round" stroke-miterlimit="10" x1="534.942" y1="330.548" x2="534.942" y2="627.235"/>
		
			<line fill="none" stroke="#C2B59B" stroke-width="25" stroke-linecap="round" stroke-miterlimit="10" x1="652.396" y1="252.501" x2="384.316" y2="577.236"/>
		<polygon fill="#1F7747" points="418.988,495.238 0,495.238 0,199.752 662.92,199.752 		"/>
		<rect y="200.001" fill="#FFFFFF" width="662.92" height="25"/>
		
			<line fill="none" stroke="#FFFFFF" stroke-width="25" stroke-linecap="round" stroke-miterlimit="10" x1="652.396" y1="212.501" x2="384.316" y2="537.236"/>
		
			<line fill="none" stroke="#FFFFFF" stroke-width="25" stroke-linecap="round" stroke-miterlimit="10" x1="202.889" y1="212.501" x2="-65.19" y2="537.236"/>
		
			<line fill="none" stroke="#FFFFFF" stroke-width="5" stroke-miterlimit="10" x1="367.413" y1="462.249" x2="255.668" y2="573.994"/>
		
			<line fill="none" stroke="#FFFFFF" stroke-width="5" stroke-miterlimit="10" x1="275.56" y1="462.249" x2="163.814" y2="573.994"/>
		
			<line fill="none" stroke="#FFFFFF" stroke-width="5" stroke-miterlimit="10" x1="229.634" y1="462.249" x2="117.889" y2="573.994"/>
		
			<line fill="none" stroke="#FFFFFF" stroke-width="5" stroke-miterlimit="10" x1="183.707" y1="462.249" x2="71.962" y2="573.994"/>
		<line fill="none" stroke="#FFFFFF" stroke-width="5" stroke-miterlimit="10" x1="137.78" y1="462.249" x2="26.035" y2="573.994"/>
		
			<line fill="none" stroke="#FFFFFF" stroke-width="5" stroke-miterlimit="10" x1="91.854" y1="462.249" x2="-19.892" y2="573.994"/>
		
			<line fill="none" stroke="#FFFFFF" stroke-width="5" stroke-miterlimit="10" x1="45.927" y1="462.249" x2="-65.818" y2="573.994"/>
		<line fill="none" stroke="#FFFFFF" stroke-width="5" stroke-miterlimit="10" x1="0" y1="462.249" x2="-111.745" y2="573.994"/>
		
			<line fill="none" stroke="#FFFFFF" stroke-width="5" stroke-miterlimit="10" x1="321.486" y1="462.249" x2="209.741" y2="573.994"/>
		<line fill="none" stroke="#FFFFFF" stroke-width="5" stroke-miterlimit="10" x1="-111.745" y1="462.249" x2="0" y2="573.994"/>
		
			<line fill="none" stroke="#FFFFFF" stroke-width="5" stroke-miterlimit="10" x1="-19.892" y1="462.249" x2="91.854" y2="573.994"/>
		
			<line fill="none" stroke="#FFFFFF" stroke-width="5" stroke-miterlimit="10" x1="26.034" y1="462.249" x2="137.779" y2="573.994"/>
		
			<line fill="none" stroke="#FFFFFF" stroke-width="5" stroke-miterlimit="10" x1="71.961" y1="462.249" x2="183.706" y2="573.994"/>
		
			<line fill="none" stroke="#FFFFFF" stroke-width="5" stroke-miterlimit="10" x1="117.888" y1="462.249" x2="229.633" y2="573.994"/>
		
			<line fill="none" stroke="#FFFFFF" stroke-width="5" stroke-miterlimit="10" x1="163.814" y1="462.249" x2="275.56" y2="573.994"/>
		
			<line fill="none" stroke="#FFFFFF" stroke-width="5" stroke-miterlimit="10" x1="209.741" y1="462.249" x2="321.486" y2="573.994"/>
		
			<line fill="none" stroke="#FFFFFF" stroke-width="5" stroke-miterlimit="10" x1="255.668" y1="462.249" x2="367.412" y2="573.994"/>
		
			<line fill="none" stroke="#FFFFFF" stroke-width="5" stroke-miterlimit="10" x1="-65.818" y1="462.249" x2="45.927" y2="573.994"/>
		<polyline fill="none" stroke="#FFFFFF" stroke-width="10" stroke-linecap="round" stroke-miterlimit="10" points="
			-124.562,462.249 367.413,462.249 367.413,564.244 		"/>
	</g>
</g>
</svg>
