<?xml version="1.0" encoding="utf-8"?>
<!-- Generator: Adobe Illustrator 16.0.4, SVG Export Plug-In . SVG Version: 6.00 Build 0)  -->
<!DOCTYPE svg PUBLIC "-//W3C//DTD SVG 1.1//EN" "http://www.w3.org/Graphics/SVG/1.1/DTD/svg11.dtd">
<svg version="1.1" id="Layer_1" xmlns="http://www.w3.org/2000/svg" xmlns:xlink="http://www.w3.org/1999/xlink" x="0px" y="0px"
	 width="132.25px" height="40.969px" viewBox="0 0 132.25 40.969" enable-background="new 0 0 132.25 40.969" xml:space="preserve">
<g>
	<g>
		<path fill="#9D2124" d="M0,0v40.969h132.25V0H0z M21.977,30.884l-3.626-7.812h-2.839v7.812h-3.93V10.303h6.846
			c5.477,0,6.872,2.736,6.872,6.156c0,2.907-1.039,4.618-3.27,5.559l4.513,8.866H21.977z M44.316,30.884H32.397V10.303h11.816v3.592
			h-7.885v4.646h6.872v3.393h-6.872v5.358h7.986L44.316,30.884L44.316,30.884z M59.226,30.884h-4.284l-6.061-20.581h4.26
			l3.956,15.336l4.134-15.336h4.082L59.226,30.884z M77.914,31.254c-5.553,0-8.062-3.763-8.062-10.633
			c0-7.239,2.865-10.746,8.037-10.746c5.148,0,8.012,3.506,8.012,10.746C85.9,27.491,83.416,31.254,77.914,31.254z M104.639,30.884
			H92.771V10.303h3.932v16.532h7.937L104.639,30.884L104.639,30.884z M121.729,14.122h-5.501v16.762h-3.931V14.122h-5.502v-3.819
			h14.934V14.122L121.729,14.122z M77.888,13.666c-2.916,0-3.804,1.396-3.804,6.898c0,5.017,0.888,6.87,3.83,6.87
			c2.891,0,3.777-1.854,3.777-6.87C81.691,15.062,80.805,13.666,77.888,13.666z M17.997,13.895h-2.485v5.759h2.408
			c2.409,0,2.992-0.856,2.992-2.993C20.912,14.606,20.303,13.895,17.997,13.895z"/>
	</g>
</g>
</svg>
